<svg xmlns="http://www.w3.org/2000/svg" version="1.1" xmlns:xlink="http://www.w3.org/1999/xlink" xmlns:svgjs="http://svgjs.dev/svgjs" width="100%" height="100%" viewBox="0 0 1000 600"><rect width="1000" height="600" x="0" y="0" fill="#fff"/><g><rect width="333.3333333333333" height="333.3333333333333" y="385.38517519529165" fill="#050505" transform="matrix(0.34419809407028024,0,0,0.34419809407028024,0,109.98480882979257)" x="363.1629638671875"/><path d="M523.4821918450493 477.05183017988276Q546.8978633229152 477.05183017988276 566.5779607517829 485.46446442030924Q586.2580581806507 493.8770986607357 597.9507086592218 510.82384922448296Q609.6433591377929 527.7705997882301 609.6433591377929 552.0366458463557L609.6433591377929 552.0366458463557Q609.6433591377929 576.3330624252048 597.9507086592218 593.279812988952Q586.2580581806507 610.2265635526992 566.5779607517829 618.6391977931257Q546.8978633229152 627.0518320335523 523.4821918450493 627.0518320335523L523.4821918450493 627.0518320335523L450.0159022147545 627.0518320335523L450.0159022147545 608.8902606408626L478.230115966943 608.8902606408626L478.230115966943 495.18303105184884L450.0159022147545 495.18303105184884L450.0159022147545 477.05183017988276L523.4821918450493 477.05183017988276ZM521.295514352953 608.8902606408626Q549.2971344600764 608.8902606408626 567.6712994978311 595.010932670195Q586.0454645355858 581.1316046995275 586.0454645355858 552.0366458463557L586.0454645355858 552.0366458463557Q586.0454645355858 522.7594638688425 567.6712994978311 508.9712474603457Q549.2971344600764 495.18303105184884 521.295514352953 495.18303105184884L521.295514352953 495.18303105184884L500.7650423438255 495.18303105184884L500.7650423438255 608.8902606408626L521.295514352953 608.8902606408626Z " fill="#fff" transform="matrix(0.34419809407028024,0,0,0.34419809407028024,0,109.98480882979257)"/><path d="M833.553349252518 479.29494676828045Q850.6765352804016 479.29494676828045 865.0680068057823 485.4468566641608Q879.459478331163 491.59876656004116 888.0099668146067 503.99142259578565Q896.5604552980506 516.3840786315302 896.5604552980506 534.1291183673006L896.5604552980506 534.1291183673006Q896.5604552980506 551.8963671640669 888.0099668146067 564.2890231998115Q879.459478331163 576.681679235556 865.0680068057823 582.8335891314362Q850.6765352804016 588.9854990273166 833.553349252518 588.9854990273166L833.553349252518 588.9854990273166L779.8296307032958 588.9854990273166L779.8296307032958 575.7044805517337L800.4618483685407 575.7044805517337L800.4618483685407 492.55375618286735L779.8296307032958 492.55375618286735L779.8296307032958 479.29494676828045L833.553349252518 479.29494676828045ZM831.954296860809 575.7044805517337Q852.4310510990822 575.7044805517337 865.8675330016367 565.554939676581Q879.3040149041913 555.4053988014282 879.3040149041913 534.1291183673006L879.3040149041913 534.1291183673006Q879.3040149041913 512.7195835671971 865.8675330016367 502.6366698750322Q852.4310510990822 492.55375618286735 831.954296860809 492.55375618286735L831.954296860809 492.55375618286735L816.9409716275416 492.55375618286735L816.9409716275416 575.7044805517337L831.954296860809 575.7044805517337ZM995.3907767300633 575.7044805517337L998.5888815134812 587.0755197816643Q993.3031249964432 590.2736245650822 986.2628526607245 590.2736245650822L986.2628526607245 590.2736245650822Q980.3552424357997 590.2736245650822 976.2687752125435 586.8312201107087Q972.2045170502832 583.3888156563353 970.6054646585743 576.9926060894993L970.6054646585743 576.9926060894993Q954.6149407414846 591.2286141879083 938.9353436783383 591.2286141879083L938.9353436783383 591.2286141879083Q927.8974403633472 591.2286141879083 920.2353143197417 584.9878680480442Q912.5509792151403 578.7471219081799 912.5509792151403 567.5537551662172L912.5509792151403 567.5537551662172Q912.5509792151403 559.8916291226117 916.8817461093521 554.2061095076465Q921.1903039425679 548.5205898926813 928.4748759492421 545.5667847802189Q935.7372388949203 542.6129796677565 944.2211001953763 542.6129796677565L944.2211001953763 542.6129796677565Q951.4168359580666 542.6129796677565 957.4799096099631 543.9677323885098Q963.5651923228556 545.3224851092634 969.9614018896915 547.8987361847944L969.9614018896915 547.8987361847944L969.9614018896915 540.8584638490759Q969.9614018896915 532.7077384635593 964.5201819456818 528.8655709112586Q959.0789620016722 525.0234033589578 950.2841738472728 525.0234033589578L950.2841738472728 525.0234033589578Q937.8248906285404 525.0234033589578 920.2353143197417 531.9082122677048L920.2353143197417 531.9082122677048L917.0372095363238 519.7376468419197Q935.892702321892 511.742384883375 952.2163621539212 511.742384883375L952.2163621539212 511.742384883375Q967.7182867290998 511.742384883375 976.2687752125435 519.3378837439925Q984.8414727569833 526.9333826046102 984.8414727569833 541.5025266179587L984.8414727569833 541.5025266179587L984.8414727569833 569.152807557926Q984.8414727569833 576.9926060894993 990.4381561279647 576.9926060894993L990.4381561279647 576.9926060894993Q992.8367347155281 576.9926060894993 995.3907767300633 575.7044805517337L995.3907767300633 575.7044805517337ZM928.0751128513149 566.7542289703626Q928.0751128513149 572.1954489143725 932.3836706845307 575.1492540268348Q936.6922285177466 578.1030591392971 942.9329746576107 578.1030591392971L942.9329746576107 578.1030591392971Q948.3741946016204 578.1030591392971 955.4144669373391 575.2380902708187Q962.4547392730577 572.3509123413442 969.9614018896915 566.7542289703626L969.9614018896915 566.7542289703626L969.9614018896915 558.2925767309027Q959.0789620016722 554.4504091786021 946.9306056368831 554.1172732636627L946.9306056368831 554.1172732636627Q939.09080710531 554.1172732636627 933.5829599783124 557.4042142910644Q928.0751128513149 560.6911553184661 928.0751128513149 566.7542289703626L928.0751128513149 566.7542289703626ZM1099.484645618118 513.6745731900232L1099.484645618118 526.3115288967233L1087.6472161072725 526.3115288967233L1055.9993041880325 597.2916878398048Q1049.269958706257 612.1717587070966 1040.8749336497851 619.6117941407424Q1032.479908593313 627.0518295743884 1021.2865418513502 627.0518295743884L1021.2865418513502 627.0518295743884Q1015.0457957114861 627.0518295743884 1010.0265479263995 625.0530140847522Q1004.985091080317 623.0541985951161 999.0552717943963 619.2120310428154L999.0552717943963 619.2120310428154L1005.4514813612323 607.2191381049981Q1013.6244158077448 613.1267483299227 1021.2865418513502 613.1267483299227L1021.2865418513502 613.1267483299227Q1028.171350760097 613.1267483299227 1033.612570704107 608.7293542527232Q1039.0315815871206 604.3319601755236 1043.2068850543606 594.7376458252697L1043.2068850543606 594.7376458252697L1044.3173381041586 592.1836038107344L1012.0253634160358 526.3115288967233L999.5438711363074 526.3115288967233L999.5438711363074 513.6745731900232L1041.7632960896235 513.6745731900232L1041.7632960896235 525.1788667859296L1028.81541352898 525.1788667859296L1051.513073866849 575.7044805517337L1073.7443439238027 525.1788667859296L1061.4183150710462 525.1788667859296L1061.4183150710462 513.6745731900232L1099.484645618118 513.6745731900232ZM1188.076589930994 575.7044805517337L1191.2746947144121 587.0755197816643Q1185.988938197374 590.2736245650822 1178.9486658616554 590.2736245650822L1178.9486658616554 590.2736245650822Q1173.0410556367306 590.2736245650822 1168.9545884134743 586.8312201107087Q1164.890330251214 583.3888156563353 1163.291277859505 576.9926060894993L1163.291277859505 576.9926060894993Q1147.3007539424154 591.2286141879083 1131.6211568792692 591.2286141879083L1131.6211568792692 591.2286141879083Q1120.583253564278 591.2286141879083 1112.9211275206726 584.9878680480442Q1105.236792416071 578.7471219081799 1105.236792416071 567.5537551662172L1105.236792416071 567.5537551662172Q1105.236792416071 559.8916291226117 1109.5675593102828 554.2061095076465Q1113.8761171434987 548.5205898926813 1121.1606891501729 545.5667847802189Q1128.423052095851 542.6129796677565 1136.9069133963071 542.6129796677565L1136.9069133963071 542.6129796677565Q1144.1026491589973 542.6129796677565 1150.165722810894 543.9677323885098Q1156.2510055237865 545.3224851092634 1162.6472150906222 547.8987361847944L1162.6472150906222 547.8987361847944L1162.6472150906222 540.8584638490759Q1162.6472150906222 532.7077384635593 1157.2059951466126 528.8655709112586Q1151.764775202603 525.0234033589578 1142.9699870482036 525.0234033589578L1142.9699870482036 525.0234033589578Q1130.5107038294711 525.0234033589578 1112.9211275206726 531.9082122677048L1112.9211275206726 531.9082122677048L1109.7230227372547 519.7376468419197Q1128.578515522823 511.742384883375 1144.9021753548518 511.742384883375L1144.9021753548518 511.742384883375Q1160.4040999300305 511.742384883375 1168.9545884134743 519.3378837439925Q1177.527285957914 526.9333826046102 1177.527285957914 541.5025266179587L1177.527285957914 541.5025266179587L1177.527285957914 569.152807557926Q1177.527285957914 576.9926060894993 1183.1239693288953 576.9926060894993L1183.1239693288953 576.9926060894993Q1185.522547916459 576.9926060894993 1188.076589930994 575.7044805517337L1188.076589930994 575.7044805517337ZM1120.7609260522458 566.7542289703626Q1120.7609260522458 572.1954489143725 1125.0694838854615 575.1492540268348Q1129.3780417186774 578.1030591392971 1135.6187878585415 578.1030591392971L1135.6187878585415 578.1030591392971Q1141.0600078025511 578.1030591392971 1148.10028013827 575.2380902708187Q1155.1405524739885 572.3509123413442 1162.6472150906222 566.7542289703626L1162.6472150906222 566.7542289703626L1162.6472150906222 558.2925767309027Q1151.764775202603 554.4504091786021 1139.616418837814 554.1172732636627L1139.616418837814 554.1172732636627Q1131.7766203062408 554.1172732636627 1126.2687731792432 557.4042142910644Q1120.7609260522458 560.6911553184661 1120.7609260522458 566.7542289703626L1120.7609260522458 566.7542289703626ZM1292.6590581609598 576.3485433206165L1307.6723833942274 576.3485433206165L1307.6723833942274 588.9854990273166L1263.2320523413157 588.9854990273166L1263.2320523413157 576.3485433206165L1277.1349245247852 576.3485433206165L1277.1349245247852 545.1670216822916Q1277.1349245247852 536.3722335278924 1272.7375304475859 531.3307766818099Q1268.340136370386 526.3115288967233 1260.1894109848695 526.3115288967233L1260.1894109848695 526.3115288967233Q1246.2865388013997 526.3115288967233 1230.7624051652251 543.9011052055221L1230.7624051652251 543.9011052055221L1230.7624051652251 576.3485433206165L1244.6874864096908 576.3485433206165L1244.6874864096908 588.9854990273166L1198.137294562163 588.9854990273166L1198.137294562163 576.3485433206165L1215.105017163075 576.3485433206165L1215.105017163075 526.3115288967233L1198.137294562163 526.3115288967233L1198.137294562163 513.6745731900232L1230.7624051652251 513.6745731900232L1230.7624051652251 531.4196129257937Q1239.7126567465962 521.5143717215965 1247.9522183760967 516.6283783024858Q1256.191780005597 511.742384883375 1265.630630928879 511.742384883375L1265.630630928879 511.742384883375Q1278.5785134895227 511.742384883375 1285.618785825241 520.0707827568592Q1292.6590581609598 528.3769715693475 1292.6590581609598 544.7006314013765L1292.6590581609598 544.7006314013765L1292.6590581609598 576.3485433206165ZM1354.844428949642 544.5229589134088Q1369.569036389962 548.5205898926813 1377.475462104523 554.5170363615899Q1385.40409688008 560.5134828304986 1385.40409688008 570.5963965226633L1385.40409688008 570.5963965226633Q1385.40409688008 579.8797840189739 1377.564298348507 585.5430945729431Q1369.724499816934 591.2286141879083 1358.2202062210276 591.2286141879083L1358.2202062210276 591.2286141879083Q1350.224944262483 591.2286141879083 1342.4517729138975 588.4302725024177Q1334.7008106263083 585.631930816927 1328.6377369744118 580.6793102148283L1328.6377369744118 580.6793102148283L1328.6377369744118 589.1409624542882L1316.4671715486265 589.1409624542882L1316.4671715486265 564.6887862977387L1323.3519804573737 564.0447235288559Q1329.4372631702663 570.9073233766069 1338.6318144225927 575.7933167957176Q1347.8263656749193 580.6793102148283 1356.6211538293187 580.6793102148283L1356.6211538293187 580.6793102148283Q1362.5287640542433 580.6793102148283 1365.882332264633 578.4361950542366Q1369.2359004750228 576.1930798936448 1369.2359004750228 572.0399854874006L1369.2359004750228 572.0399854874006Q1369.2359004750228 567.2428283122738 1363.9723530189808 564.1113507118437Q1358.6865965019429 561.0020821724097 1346.6937035641254 557.8039773889916L1346.6937035641254 557.8039773889916Q1332.3022320387447 553.9618098366909 1324.5512697511556 548.1208267947541Q1316.8003074635662 542.3020528138131 1316.8003074635662 532.863201890531L1316.8003074635662 532.863201890531Q1316.8003074635662 526.9333826046102 1320.0650394299719 522.0695982464954Q1323.3519804573737 517.1836048273847 1329.3484269262824 514.385263141894Q1335.344873395191 511.5869214564033 1343.1846719267642 511.5869214564033L1343.1846719267642 511.5869214564033Q1350.8467979703696 511.5869214564033 1357.8204431231004 514.1409634709385Q1364.7718792148353 516.7172145464696 1369.8799632439054 521.3366992336288L1369.8799632439054 521.3366992336288L1369.8799632439054 513.6745731900232L1381.872856181723 513.6745731900232L1381.872856181723 537.9712859196013L1374.8325838460041 538.7708121154558Q1370.3685625858166 531.264149498822 1362.6176002982274 526.7112919946505Q1354.844428949642 522.1362254294833 1347.1823029060365 522.1362254294833L1347.1823029060365 522.1362254294833Q1340.9415567661724 522.1362254294833 1336.9439257868999 524.6236402610306Q1332.9462948076275 527.1110550925778 1332.9462948076275 531.1086860718503L1332.9462948076275 531.1086860718503Q1332.9462948076275 535.4172439050661 1338.2320513246655 538.3710490175285Q1343.4955987807075 541.3248541299909 1354.844428949642 544.5229589134088L1354.844428949642 544.5229589134088ZM1492.5406071245811 576.3485433206165L1507.5539323578487 576.3485433206165L1507.5539323578487 588.9854990273166L1463.1136013049368 588.9854990273166L1463.1136013049368 576.3485433206165L1477.0164734884065 576.3485433206165L1477.0164734884065 545.1670216822916Q1477.0164734884065 535.9058432469772 1472.6190794112067 530.7755501569109Q1468.2216853340074 525.6674661278405 1459.915496521519 525.6674661278405L1459.915496521519 525.6674661278405Q1446.9676139608755 525.6674661278405 1431.1325534707576 543.2570424366393L1431.1325534707576 543.2570424366393L1431.1325534707576 576.3485433206165L1444.8799622272554 576.3485433206165L1444.8799622272554 588.9854990273166L1398.5074428676953 588.9854990273166L1398.5074428676953 576.3485433206165L1415.452956407611 576.3485433206165L1415.452956407611 491.9319024749805L1398.5074428676953 491.9319024749805L1398.5074428676953 479.29494676828045L1431.1325534707576 479.29494676828045L1431.1325534707576 530.9310135838825Q1439.9273416251567 521.3366992336288 1448.1669032546572 516.5395420585019Q1456.3842558231615 511.742384883375 1466.1562426613832 511.742384883375L1466.1562426613832 511.742384883375Q1479.1041252220266 511.742384883375 1485.8112616428057 519.9819465128753Q1492.5406071245811 528.2215081423758 1492.5406071245811 544.7006314013765L1492.5406071245811 544.7006314013765L1492.5406071245811 576.3485433206165ZM1670.9904122271028 514.4740993858778L1656.2658047867826 514.4740993858778L1656.2658047867826 492.55375618286735L1599.3439814541425 492.55375618286735L1599.3439814541425 527.577445373493L1624.6178928675427 527.577445373493L1624.6178928675427 512.7195835671971L1637.4103120012146 512.7195835671971L1637.4103120012146 554.6058726055737L1624.6178928675427 554.6058726055737L1624.6178928675427 539.7258017382819L1599.3439814541425 539.7258017382819L1599.3439814541425 575.7044805517337L1656.2658047867826 575.7044805517337L1656.2658047867826 553.8063464097193L1670.9904122271028 553.8063464097193L1670.9904122271028 588.9854990273166L1562.5657764448363 588.9854990273166L1562.5657764448363 575.7044805517337L1583.0425306831096 575.7044805517337L1583.0425306831096 492.55375618286735L1562.5657764448363 492.55375618286735L1562.5657764448363 479.29494676828045L1670.9904122271028 479.29494676828045L1670.9904122271028 514.4740993858778ZM1780.9918913400825 576.3485433206165L1796.027425634346 576.3485433206165L1796.027425634346 588.9854990273166L1751.587094581434 588.9854990273166L1751.587094581434 576.3485433206165L1765.4899667649038 576.3485433206165L1765.4899667649038 545.1670216822916Q1765.4899667649038 536.3722335278924 1761.0925726877042 531.3307766818099Q1756.6951786105046 526.3115288967233 1748.5444532249878 526.3115288967233L1748.5444532249878 526.3115288967233Q1734.6193719805224 526.3115288967233 1719.1174474053437 543.9011052055221L1719.1174474053437 543.9011052055221L1719.1174474053437 576.3485433206165L1733.0203195888134 576.3485433206165L1733.0203195888134 588.9854990273166L1686.4923368022814 588.9854990273166L1686.4923368022814 576.3485433206165L1703.4378503421974 576.3485433206165L1703.4378503421974 526.3115288967233L1686.4923368022814 526.3115288967233L1686.4923368022814 513.6745731900232L1719.1174474053437 513.6745731900232L1719.1174474053437 531.4196129257937Q1728.0676989867147 521.5143717215965 1736.307260616215 516.6283783024858Q1744.5468222457155 511.742384883375 1753.9856731689974 511.742384883375L1753.9856731689974 511.742384883375Q1766.933555729641 511.742384883375 1773.9738280653596 520.0707827568592Q1780.9918913400825 528.3769715693475 1780.9918913400825 544.7006314013765L1780.9918913400825 544.7006314013765L1780.9918913400825 576.3485433206165ZM1860.478120644616 571.8845220604289L1865.9193405886253 583.6997425102786Q1859.9895213027048 587.230983208636 1854.3262107487353 589.1409624542882Q1848.6406911337704 591.0731507609366 1841.2894919441082 591.0731507609366L1841.2894919441082 591.0731507609366Q1828.9634630913515 591.0731507609366 1821.701100145673 583.2999794123514Q1814.4165281389992 575.549017124762 1814.4165281389992 561.1575455993814L1814.4165281389992 561.1575455993814L1814.4165281389992 526.3115288967233L1797.6264780260549 526.3115288967233L1797.6264780260549 513.6745731900232L1814.4165281389992 513.6745731900232L1814.4165281389992 492.731428670835L1830.0961252021452 492.731428670835L1830.0961252021452 513.6745731900232L1855.036900700606 513.6745731900232L1855.036900700606 526.3115288967233L1830.0961252021452 526.3115288967233L1830.0961252021452 561.313009026353Q1830.0961252021452 569.4859434728655 1833.7606202664783 573.3059019641703Q1837.4473243918073 577.148069516471 1843.6880705316717 577.148069516471L1843.6880705316717 577.148069516471Q1848.1520917918592 577.148069516471 1852.1497227711316 575.7933167957176Q1856.147353750404 574.4385640749642 1860.478120644616 571.8845220604289L1860.478120644616 571.8845220604289ZM1940.586203657036 567.5537551662172L1947.2933400778152 577.7921322853538Q1931.9468789296084 591.2286141879083 1912.2918599481854 591.2286141879083L1912.2918599481854 591.2286141879083Q1901.5648834871376 591.2286141879083 1891.970569136884 586.7423838667248Q1882.3762547866304 582.2783626065373 1876.4686445617053 573.6390378791098Q1870.5388252757848 564.999713151682 1870.5388252757848 553.1622836408364L1870.5388252757848 553.1622836408364Q1870.5388252757848 540.5253279341364 1876.6241079886772 531.1086860718503Q1882.7093907015696 521.6698351485682 1892.4591684787952 516.6283783024858Q1902.2089462560207 511.5869214564033 1912.913713656072 511.5869214564033L1912.913713656072 511.5869214564033Q1922.3525645793543 511.5869214564033 1929.7926000130005 514.6295628128496Q1937.2326354466463 517.6722041692958 1941.4745660968742 523.1134241133054Q1945.6942876861062 528.5324349963191 1945.6942876861062 535.5727073320379L1945.6942876861062 535.5727073320379Q1945.6942876861062 546.1220113051179 1936.6774089217474 551.9629943470547Q1927.6383210963927 557.8039773889916 1915.0013653896926 557.8039773889916L1915.0013653896926 557.8039773889916Q1906.8506400041756 557.8039773889916 1899.8103676684573 556.1160887532989Q1892.7700953327385 554.4504091786021 1885.5743595700483 551.2523043951842L1885.5743595700483 551.2523043951842L1885.5743595700483 552.6958933599213Q1885.5743595700483 560.2025559765552 1889.1722274513936 565.9547027745082Q1892.7700953327385 571.7068495724614 1898.8553780456314 574.7494909289076Q1904.9184516975274 577.7921322853538 1912.1141874602176 577.7921322853538L1912.1141874602176 577.7921322853538Q1928.4378472922467 577.7921322853538 1940.586203657036 567.5537551662172L1940.586203657036 567.5537551662172ZM1914.0463757668663 524.0684137361316Q1905.4070510394386 524.0684137361316 1897.9670156057928 529.0210343382303Q1890.526980172147 533.9736549403289 1887.3288753887286 542.4575162407848L1887.3288753887286 542.4575162407848Q1899.499440814514 546.7660740740007 1911.6477971793029 546.7660740740007L1911.6477971793029 546.7660740740007Q1919.6430591378476 546.7660740740007 1924.8399794109018 543.8122689615382Q1930.036899683956 540.8584638490759 1930.036899683956 535.5727073320379L1930.036899683956 535.5727073320379Q1930.036899683956 530.4646233029675 1925.5506693627726 527.2665185195495Q1921.086648102585 524.0684137361316 1914.0463757668663 524.0684137361316L1914.0463757668663 524.0684137361316ZM2026.6241059553772 511.742384883375L2033.3312423761563 511.742384883375L2033.3312423761563 543.7234327175544L2019.4283701926865 543.7234327175544L2019.4283701926865 527.2665185195495Q2013.1876240528222 527.2665185195495 2005.8364248631601 531.9082122677048Q1998.463016612502 536.527696954864 1990.6454271419252 545.0115582553199L1990.6454271419252 545.0115582553199L1990.6454271419252 576.3485433206165L2007.7464041088128 576.3485433206165L2007.7464041088128 588.9854990273166L1958.020316538863 588.9854990273166L1958.020316538863 576.3485433206165L1974.9658300787787 576.3485433206165L1974.9658300787787 526.3115288967233L1958.020316538863 526.3115288967233L1958.020316538863 513.6745731900232L1990.6454271419252 513.6745731900232L1990.6454271419252 532.5300659755916Q1999.1070793813851 522.7802881983661 2008.3016306337117 517.2724410713686Q2017.4961818860384 511.742384883375 2026.6241059553772 511.742384883375L2026.6241059553772 511.742384883375ZM2105.4440634300317 511.5869214564033Q2114.8829143533135 511.5869214564033 2122.878176311858 516.5395420585019Q2130.8734382704033 521.5143717215965 2135.67059544553 530.3757870589836Q2140.467752620657 539.2594114573668 2140.467752620657 550.6082416263014L2140.467752620657 550.6082416263014Q2140.467752620657 562.2902077101752 2135.270832347603 571.5513861454897Q2130.073912074549 580.8347736418 2121.123660493178 586.0316939148543Q2112.1734089118067 591.2286141879083 2101.2909690237875 591.2286141879083L2101.2909690237875 591.2286141879083Q2087.054960925378 591.2286141879083 2075.062067987561 580.3461742998888L2075.062067987561 580.3461742998888L2075.062067987561 611.2167690842705L2092.496180869388 611.2167690842705L2092.496180869388 623.8537247909705L2042.92555672641 623.8537247909705L2042.92555672641 611.2167690842705L2059.715606839354 611.2167690842705L2059.715606839354 526.3115288967233L2042.92555672641 526.3115288967233L2042.92555672641 513.6745731900232L2075.062067987561 513.6745731900232L2075.062067987561 528.2215081423758Q2081.3028141274253 520.5371730377743 2089.29807608597 516.0731517775868Q2097.2933380445147 511.5869214564033 2105.4440634300317 511.5869214564033L2105.4440634300317 511.5869214564033ZM2097.9374008133977 577.7921322853538Q2105.4440634300317 577.7921322853538 2111.44050989894 574.3497278309803Q2117.436956367849 570.9073233766069 2120.7905245782385 564.6887862977387Q2124.166301849624 558.4480401578744 2124.166301849624 550.4527781993296L2124.166301849624 550.4527781993296Q2124.166301849624 539.1039480303951 2117.6812560388043 531.9748394506926Q2111.1962102279845 524.867939931986 2101.1355055968156 524.867939931986L2101.1355055968156 524.867939931986Q2094.2506966880687 524.867939931986 2087.543560267289 529.0210343382303Q2080.814214785514 533.1741287444744 2075.062067987561 540.5253279341364L2075.062067987561 540.5253279341364L2075.062067987561 568.5087447890435Q2086.5885706444633 577.7921322853538 2097.9374008133977 577.7921322853538L2097.9374008133977 577.7921322853538ZM2220.1094453521623 511.742384883375L2226.8165817729414 511.742384883375L2226.8165817729414 543.7234327175544L2212.913709589472 543.7234327175544L2212.913709589472 527.2665185195495Q2206.672963449608 527.2665185195495 2199.3217642599457 531.9082122677048Q2191.948356009287 536.527696954864 2184.1307665387103 545.0115582553199L2184.1307665387103 545.0115582553199L2184.1307665387103 576.3485433206165L2201.231743505598 576.3485433206165L2201.231743505598 588.9854990273166L2151.5056559356485 588.9854990273166L2151.5056559356485 576.3485433206165L2168.4511694755643 576.3485433206165L2168.4511694755643 526.3115288967233L2151.5056559356485 526.3115288967233L2151.5056559356485 513.6745731900232L2184.1307665387103 513.6745731900232L2184.1307665387103 532.5300659755916Q2192.59241877817 522.7802881983661 2201.786970030497 517.2724410713686Q2210.9815212828235 511.742384883375 2220.1094453521623 511.742384883375L2220.1094453521623 511.742384883375ZM2262.3066612444823 496.55138716213975Q2257.1985772154117 496.55138716213975 2253.6895455780505 493.8418817206329Q2250.1583048796933 491.13237627912605 2250.1583048796933 486.95707281188595L2250.1583048796933 486.95707281188595Q2250.1583048796933 482.6485149786701 2253.6895455780505 479.8501732931794Q2257.1985772154117 477.0518316076887 2262.3066612444823 477.0518316076887L2262.3066612444823 477.0518316076887Q2267.7478811884916 477.0518316076887 2271.279121886849 479.8501732931794Q2274.7881535242104 482.6485149786701 2274.7881535242104 486.95707281188595L2274.7881535242104 486.95707281188595Q2274.7881535242104 491.13237627912605 2271.279121886849 493.8418817206329Q2267.7478811884916 496.55138716213975 2262.3066612444823 496.55138716213975L2262.3066612444823 496.55138716213975ZM2271.900975594736 576.3485433206165L2289.0241616226194 576.3485433206165L2289.0241616226194 588.9854990273166L2239.29807405267 588.9854990273166L2239.29807405267 576.3485433206165L2256.2435875925858 576.3485433206165L2256.2435875925858 526.3115288967233L2239.29807405267 526.3115288967233L2239.29807405267 513.6745731900232L2271.900975594736 513.6745731900232L2271.900975594736 576.3485433206165ZM2335.707607836123 544.5229589134088Q2350.432215276443 548.5205898926813 2358.3386409910045 554.5170363615899Q2366.245066705565 560.5134828304986 2366.245066705565 570.5963965226633L2366.245066705565 570.5963965226633Q2366.245066705565 579.8797840189739 2358.427477234988 585.5430945729431Q2350.587678703415 591.2286141879083 2339.0611760465126 591.2286141879083L2339.0611760465126 591.2286141879083Q2331.065914087968 591.2286141879083 2323.3149518003784 588.4302725024177Q2315.5639895127897 585.631930816927 2309.478706799897 580.6793102148283L2309.478706799897 580.6793102148283L2309.478706799897 589.1409624542882L2297.330350435108 589.1409624542882L2297.330350435108 564.6887862977387L2304.215159343855 564.0447235288559Q2310.2782329957513 570.9073233766069 2319.472784248078 575.7933167957176Q2328.6673355004045 580.6793102148283 2337.4621236548037 580.6793102148283L2337.4621236548037 580.6793102148283Q2343.3919429407247 580.6793102148283 2346.7455111511144 578.4361950542366Q2350.0990793615038 576.1930798936448 2350.0990793615038 572.0399854874006L2350.0990793615038 572.0399854874006Q2350.0990793615038 567.2428283122738 2344.8355319054617 564.1113507118437Q2339.5497753884238 561.0020821724097 2327.5568824506067 557.8039773889916L2327.5568824506067 557.8039773889916Q2313.165410925226 553.9618098366909 2305.4144486376367 548.1208267947541Q2297.663486350047 542.3020528138131 2297.663486350047 532.863201890531L2297.663486350047 532.863201890531Q2297.663486350047 526.9333826046102 2300.9282183164532 522.0695982464954Q2304.215159343855 517.1836048273847 2310.2116058127635 514.385263141894Q2316.2080522816723 511.5869214564033 2324.047850813245 511.5869214564033L2324.047850813245 511.5869214564033Q2331.709976856851 511.5869214564033 2338.6614129485856 514.1409634709385Q2345.635058101316 516.7172145464696 2350.7431421303863 521.3366992336288L2350.7431421303863 521.3366992336288L2350.7431421303863 513.6745731900232L2362.736035068204 513.6745731900232L2362.736035068204 537.9712859196013L2355.695762732485 538.7708121154558Q2351.2317414722975 531.264149498822 2343.4585701237124 526.7112919946505Q2335.707607836123 522.1362254294833 2328.045481792518 522.1362254294833L2328.045481792518 522.1362254294833Q2321.8047356526536 522.1362254294833 2317.8071046733808 524.6236402610306Q2313.8094736941084 527.1110550925778 2313.8094736941084 531.1086860718503L2313.8094736941084 531.1086860718503Q2313.8094736941084 535.4172439050661 2319.0730211501505 538.3710490175285Q2324.3587776671884 541.3248541299909 2335.707607836123 544.5229589134088L2335.707607836123 544.5229589134088ZM2453.393422053704 567.5537551662172L2460.122767535479 577.7921322853538Q2444.7763063872726 591.2286141879083 2425.0990783448538 591.2286141879083L2425.0990783448538 591.2286141879083Q2414.3943109448023 591.2286141879083 2404.7999965945482 586.7423838667248Q2395.205682244294 582.2783626065373 2389.2758629583736 573.6390378791098Q2383.368252733449 564.999713151682 2383.368252733449 553.1622836408364L2383.368252733449 553.1622836408364Q2383.368252733449 540.5253279341364 2389.4313263853455 531.1086860718503Q2395.516609098238 521.6698351485682 2405.2663868754635 516.6283783024858Q2415.016164652689 511.5869214564033 2425.7431411137363 511.5869214564033L2425.7431411137363 511.5869214564033Q2435.1819920370185 511.5869214564033 2442.5998184096684 514.6295628128496Q2450.039853843314 517.6722041692958 2454.281784493542 523.1134241133054Q2458.5237151437705 528.5324349963191 2458.5237151437705 535.5727073320379L2458.5237151437705 535.5727073320379Q2458.5237151437705 546.1220113051179 2449.4846273184157 551.9629943470547Q2440.4455394930606 557.8039773889916 2427.8085837863605 557.8039773889916L2427.8085837863605 557.8039773889916Q2419.657858400844 557.8039773889916 2412.617586065125 556.1160887532989Q2405.5995227904027 554.4504091786021 2398.4037870277125 551.2523043951842L2398.4037870277125 551.2523043951842L2398.4037870277125 552.6958933599213Q2398.4037870277125 560.2025559765552 2402.0016549090574 565.9547027745082Q2405.5995227904027 571.7068495724614 2411.662596442299 574.7494909289076Q2417.7478791551916 577.7921322853538 2424.9436149178823 577.7921322853538L2424.9436149178823 577.7921322853538Q2441.245065688915 577.7921322853538 2453.393422053704 567.5537551662172L2453.393422053704 567.5537551662172ZM2426.853594163534 524.0684137361316Q2418.2142694361064 524.0684137361316 2410.7964430634565 529.0210343382303Q2403.356407629811 533.9736549403289 2400.158302846393 542.4575162407848L2400.158302846393 542.4575162407848Q2412.306659211182 546.7660740740007 2424.455015575971 546.7660740740007L2424.455015575971 546.7660740740007Q2432.450277534516 546.7660740740007 2437.64719780757 543.8122689615382Q2442.844118080624 540.8584638490759 2442.844118080624 535.5727073320379L2442.844118080624 535.5727073320379Q2442.844118080624 530.4646233029675 2438.3800968204364 527.2665185195495Q2433.893866499253 524.0684137361316 2426.853594163534 524.0684137361316L2426.853594163534 524.0684137361316ZM2511.6033709241096 544.5229589134088Q2526.32797836443 548.5205898926813 2534.234404078991 554.5170363615899Q2542.140829793552 560.5134828304986 2542.140829793552 570.5963965226633L2542.140829793552 570.5963965226633Q2542.140829793552 579.8797840189739 2534.323240322975 585.5430945729431Q2526.483441791401 591.2286141879083 2514.9569391344994 591.2286141879083L2514.9569391344994 591.2286141879083Q2506.9616771759547 591.2286141879083 2499.210714888365 588.4302725024177Q2491.459752600776 585.631930816927 2485.374469887883 580.6793102148283L2485.374469887883 580.6793102148283L2485.374469887883 589.1409624542882L2473.226113523094 589.1409624542882L2473.226113523094 564.6887862977387L2480.110922431841 564.0447235288559Q2486.1739960837376 570.9073233766069 2495.3685473360647 575.7933167957176Q2504.563098588391 580.6793102148283 2513.3578867427905 580.6793102148283L2513.3578867427905 580.6793102148283Q2519.287706028711 580.6793102148283 2522.6412742391008 578.4361950542366Q2525.9948424494905 576.1930798936448 2525.9948424494905 572.0399854874006L2525.9948424494905 572.0399854874006Q2525.9948424494905 567.2428283122738 2520.7312949934485 564.1113507118437Q2515.4455384764105 561.0020821724097 2503.452645538593 557.8039773889916L2503.452645538593 557.8039773889916Q2489.0611740132126 553.9618098366909 2481.3102117256235 548.1208267947541Q2473.559249438034 542.3020528138131 2473.559249438034 532.863201890531L2473.559249438034 532.863201890531Q2473.559249438034 526.9333826046102 2476.8239814044396 522.0695982464954Q2480.110922431841 517.1836048273847 2486.1073689007503 514.385263141894Q2492.1038153696586 511.5869214564033 2499.943613901232 511.5869214564033L2499.943613901232 511.5869214564033Q2507.6057399448373 511.5869214564033 2514.557176036572 514.1409634709385Q2521.530821189303 516.7172145464696 2526.638905218373 521.3366992336288L2526.638905218373 521.3366992336288L2526.638905218373 513.6745731900232L2538.6317981561906 513.6745731900232L2538.6317981561906 537.9712859196013L2531.591525820472 538.7708121154558Q2527.1275045602843 531.264149498822 2519.354333211699 526.7112919946505Q2511.6033709241096 522.1362254294833 2503.941244880504 522.1362254294833L2503.941244880504 522.1362254294833Q2497.7004987406403 522.1362254294833 2493.7028677613675 524.6236402610306Q2489.705236782095 527.1110550925778 2489.705236782095 531.1086860718503L2489.705236782095 531.1086860718503Q2489.705236782095 535.4172439050661 2494.9687842381372 538.3710490175285Q2500.254540755175 541.3248541299909 2511.6033709241096 544.5229589134088L2511.6033709241096 544.5229589134088Z " fill="#050505" transform="matrix(0.34419809407028024,0,0,0.34419809407028024,0,109.98480882979257)"/></g></svg>